# xmcd
#
# Track frame offsets:
#	150
#	11362
#	22470
#	33000
#	44298
#	56577
#	67487
#	75997
#	84633
#	97077
#	105737
#	114431
#	123328
#	132189
#	144369
#	156014
#	161488
#	171270
#	181029
#	191130
#	200738
#	213676
#	224475
#	232311
#	244668
#
# Disc length: 3432 seconds
#
# Revision: 0
# Processed by: cddbd v1.5.1PL2 Copyright (c) Steve Scherf et al.
# Submitted via: dBpowerAMP V4.0
#
DISCID=6d0d6619
DTITLE=Various Artist - 90s Hitmix
DYEAR=1999
DGENRE=Dance
TTITLE0=KWS - Please Don't Go
TTITLE1=Adamski - Killer
TTITLE2=Crystal Waters - Gypsy Woman
TTITLE3=Haddaway - What Is Love
TTITLE4=Reel To Real Featuring The Mad Stuntman - I Like To Move It
TTITLE5=Everything But The Girl - Missing
TTITLE6=No Mercy - Where Do You Go
TTITLE7=U 96 - Das Boot
TTITLE8=Run DMC Vs. Jason Nevins - It's Like That '97
TTITLE9=Whigfield - Saturday Night
TTITLE10=Aqua - Barbie Girl
TTITLE11=Outhere Brothers - Boom Boom Boom
TTITLE12=Dr. Alban - It's My Life
TTITLE13=Snap - Rhythm Is A Dancer
TTITLE14=Prince Ital Joe Featuring Marky Mark - Happy People
TTITLE15=Prince Ital Joe Featuring Marky Mark - United
TTITLE16=Da Hool - Meet Her At The Loveparade
TTITLE17=Sin With Sebastian - Shut Up (And Sleep With Me)
TTITLE18=Bellini - Samba De Janeiro
TTITLE19=Loona - Bailando
TTITLE20=DJ Bobo - Pray
TTITLE21=Technotronic - Get Up - The '98 Sequel
TTITLE22=Scatman John - Scatman
TTITLE23=Dance 2 Trance - Power Of American Natives '98
TTITLE24=Robert Miles - Children
EXTD=
EXTT0=
EXTT1=
EXTT2=
EXTT3=
EXTT4=
EXTT5=
EXTT6=
EXTT7=
EXTT8=
EXTT9=
EXTT10=
EXTT11=
EXTT12=
EXTT13=
EXTT14=
EXTT15=
EXTT16=
EXTT17=
EXTT18=
EXTT19=
EXTT20=
EXTT21=
EXTT22=
EXTT23=
EXTT24=
PLAYORDER=
